<svg width="512" height="512" viewBox="0 0 512 512" fill="none" xmlns="http://www.w3.org/2000/svg">
<path d="M256 31C131.735 31 31 131.741 31 256C31 380.272 131.735 481 256 481C380.265 481 481 380.272 481 256C481 131.741 380.265 31 256 31ZM357.887 270.036C353.951 293.953 339.17 352.78 281.987 352.78C240.619 352.78 203.2 352.467 184.476 329.136C168.829 309.64 170.794 282.713 183.271 262.352C192.379 247.497 196.681 244.628 193.718 240.679C190.948 236.989 188.011 232.449 185.674 227.168C180.447 227.315 172.511 227.967 167.384 229.732C161.951 231.589 157.05 224.213 160.879 219.837C163.735 216.582 166.931 214.091 170.727 212.288C157.323 206.974 152.083 190.108 153.009 183.883C154.32 175.021 161.871 173.043 164.821 179.941C167.564 186.34 170.733 191.873 184.503 189.123C191.534 171.625 208.866 159.233 229.147 159.233C255.668 159.233 277.168 180.401 277.168 206.508C277.168 211.748 276.055 218.906 274.458 223.606C252.299 275.322 320.966 261.047 331.293 253.789C351.767 239.381 362.927 239.381 357.887 270.036Z" fill="#FED864"/>
</svg>
